<svg width="600" height="449" viewBox="0 0 600 449" fill="none" xmlns="http://www.w3.org/2000/svg">
<path d="M103.128 267.723V316.628L74.025 300.818C75.9747 286.187 83.2758 272.798 94.5188 263.235L103.128 267.723Z" fill="#E6E7E8"/>
<path d="M74.903 294.138C74.7545 294.707 73.3839 300.335 73.4375 300.903C73.5386 301.39 71.9532 300.382 102.844 317.149C102.983 317.225 103.145 317.242 103.297 317.197C103.448 317.153 103.575 317.049 103.651 316.911C103.726 316.772 103.743 316.609 103.699 316.458C103.654 316.307 103.551 316.179 103.412 316.104L74.6882 300.505C77.4201 286.151 83.127 273.105 94.5851 263.942L102.847 268.247C102.986 268.313 103.145 268.322 103.29 268.274C103.436 268.225 103.557 268.122 103.628 267.986C103.699 267.85 103.714 267.691 103.671 267.544C103.628 267.397 103.53 267.272 103.397 267.195C94.4335 262.543 94.7146 262.518 94.2788 262.695C93.1677 263.534 92.1028 264.432 91.0889 265.386C76.9211 257.509 75.6736 256.758 75.3388 256.644C74.1707 255.289 72.9039 254.022 71.5489 252.854C69.3194 250.918 66.8028 249.34 64.0892 248.177C63.2746 247.844 62.3659 247.824 61.5373 248.12C46.4662 253.426 25.4955 257.746 1.89714 270.199C1.26433 270.534 0.747059 271.052 0.412676 271.685C0.0782934 272.318 -0.0577099 273.037 0.0223737 273.749C0.102457 274.46 0.394918 275.131 0.861677 275.674C1.32844 276.217 1.94787 276.607 2.63933 276.793C20.2692 281.465 38.4084 283.942 56.6452 284.168L74.903 294.138ZM75.2188 292.957L57.6053 283.334C63.8365 268.683 68.3623 262.243 75.3736 258.005L90.192 266.242C82.8854 273.635 77.7121 282.866 75.2188 292.957V292.957Z" fill="#000001"/>
<path d="M174.002 326.915C169.559 332.624 163.215 336.551 156.122 337.98C149.03 339.41 141.66 338.248 135.352 334.706L121.455 326.915H174.002Z" fill="#E6E7E8"/>
<path d="M264.533 326.915L251.761 403.344C238.033 407.048 223.397 405.16 211.058 398.095L218.795 326.915H264.533Z" fill="#E6E7E8"/>
<path d="M239.46 262.856H150.915C152.147 257.171 153.862 249.509 154.557 244.087C156.768 226.96 169.012 210.23 174.176 203.949H198.04L202.268 216.746C203.601 220.779 206.228 224.258 209.743 226.644C213.257 229.029 217.461 230.186 221.701 229.935L239.46 262.856Z" fill="#E6E7E8"/>
<path d="M473.991 436.284H468.779L452.988 375.994C452.955 375.867 452.881 375.754 452.777 375.674C452.673 375.594 452.545 375.551 452.413 375.551H445.497C445.361 375.551 445.23 375.597 445.125 375.682C445.019 375.767 444.947 375.886 444.919 376.019L431.834 436.284H426.639C426.481 436.284 426.329 436.347 426.217 436.459C426.105 436.571 426.042 436.723 426.042 436.881V447.619C426.043 447.777 426.106 447.928 426.218 448.039C426.33 448.151 426.481 448.213 426.639 448.213H473.975C474.132 448.213 474.283 448.151 474.395 448.039C474.506 447.928 474.569 447.777 474.569 447.619V436.881C474.569 436.726 474.508 436.577 474.4 436.466C474.293 436.354 474.146 436.289 473.991 436.284V436.284ZM443.561 387.938L456.592 394.4L461.329 412.493L440.485 402.156L443.561 387.938ZM436.837 418.924L466.91 433.837L467.522 436.18H433.098L436.837 418.924Z" fill="#D20032"/>
<path d="M204.094 97.7623L202.862 98.5961C204.231 98.9678 205.446 99.7648 206.332 100.872C207.218 101.979 207.729 103.34 207.791 104.756C207.854 106.173 207.465 107.573 206.68 108.754C205.895 109.935 204.755 110.836 203.424 111.327L203.693 112.492C205.196 111.96 206.503 110.984 207.442 109.694C208.38 108.404 208.905 106.86 208.949 105.265C208.992 103.67 208.551 102.1 207.685 100.761C206.818 99.4215 205.566 98.3761 204.094 97.7623Z" fill="#D20032"/>
<path d="M256.293 176.671V153.161H216.499C216.342 153.161 216.191 153.098 216.08 152.987C215.968 152.876 215.906 152.725 215.906 152.567C215.906 152.41 215.968 152.259 216.08 152.147C216.191 152.036 216.342 151.973 216.499 151.973H256.887C256.965 151.973 257.042 151.989 257.114 152.019C257.186 152.049 257.252 152.092 257.307 152.147C257.362 152.203 257.406 152.268 257.436 152.34C257.465 152.412 257.481 152.489 257.481 152.567V176.671C257.481 176.828 257.418 176.979 257.307 177.091C257.195 177.202 257.044 177.265 256.887 177.265C256.73 177.265 256.578 177.202 256.467 177.091C256.356 176.979 256.293 176.828 256.293 176.671V176.671Z" fill="#D20032"/>
<path d="M215.997 350.45H187.734C187.577 350.45 187.426 350.387 187.314 350.276C187.203 350.165 187.14 350.014 187.14 349.856C187.14 349.699 187.203 349.548 187.314 349.436C187.426 349.325 187.577 349.262 187.734 349.262H215.997C216.155 349.262 216.306 349.325 216.417 349.436C216.528 349.548 216.591 349.699 216.591 349.856C216.591 350.014 216.528 350.165 216.417 350.276C216.306 350.387 216.155 350.45 215.997 350.45V350.45Z" fill="#D20032"/>
<path d="M187.734 350.45C176.039 350.458 164.752 346.151 156.035 338.354C155.918 338.249 155.847 338.101 155.838 337.944C155.83 337.787 155.884 337.633 155.989 337.515C156.094 337.398 156.242 337.327 156.399 337.319C156.556 337.31 156.71 337.364 156.828 337.469C165.327 345.071 176.332 349.27 187.734 349.262C187.892 349.262 188.043 349.325 188.154 349.436C188.265 349.548 188.328 349.699 188.328 349.856C188.328 350.014 188.265 350.165 188.154 350.276C188.043 350.387 187.892 350.45 187.734 350.45V350.45Z" fill="#D20032"/>
<path d="M512.347 326.611C508.216 333.499 502.376 339.203 495.394 343.172C488.411 347.141 480.522 349.24 472.49 349.265H260.888C260.731 349.265 260.58 349.328 260.469 349.439C260.357 349.551 260.295 349.702 260.295 349.859C260.295 350.017 260.357 350.168 260.469 350.279C260.58 350.39 260.731 350.453 260.888 350.453H472.49C480.728 350.429 488.82 348.278 495.983 344.208C503.145 340.138 509.136 334.288 513.374 327.224C513.414 327.157 513.441 327.082 513.452 327.004C513.463 326.927 513.459 326.848 513.44 326.772C513.421 326.695 513.387 326.624 513.34 326.561C513.293 326.498 513.234 326.445 513.167 326.405C513.1 326.364 513.025 326.338 512.947 326.326C512.87 326.315 512.79 326.319 512.714 326.338C512.638 326.357 512.567 326.391 512.504 326.438C512.441 326.485 512.388 326.544 512.347 326.611V326.611Z" fill="#D20032"/>
<path d="M520.066 120.205C520.052 107.591 515.035 95.4978 506.116 86.5782C497.197 77.6586 485.104 72.6409 472.49 72.6259H187.734C175.12 72.6401 163.026 77.6573 154.105 86.5769C145.185 95.4965 140.167 107.59 140.152 120.205V262.856C140.163 263.006 140.231 263.147 140.341 263.25C140.451 263.352 140.597 263.41 140.747 263.41C140.898 263.41 141.044 263.352 141.154 263.25C141.264 263.147 141.332 263.006 141.343 262.856V130.921H181.137C181.294 130.921 181.445 130.858 181.556 130.747C181.668 130.635 181.73 130.484 181.73 130.327C181.73 130.169 181.668 130.018 181.556 129.907C181.445 129.796 181.294 129.733 181.137 129.733H141.343V120.205C141.357 107.905 146.249 96.1138 154.946 87.4168C163.643 78.7198 175.435 73.8276 187.734 73.8134H472.49C484.79 73.8276 496.581 78.7198 505.278 87.4168C513.975 96.1138 518.868 107.905 518.882 120.205V129.733H199.874C199.717 129.733 199.566 129.796 199.455 129.907C199.343 130.018 199.281 130.169 199.281 130.327C199.281 130.484 199.343 130.635 199.455 130.747C199.566 130.858 199.717 130.921 199.874 130.921H518.875V262.856C518.886 263.006 518.954 263.147 519.064 263.25C519.175 263.352 519.32 263.41 519.471 263.41C519.622 263.41 519.767 263.352 519.877 263.25C519.988 263.147 520.055 263.006 520.066 262.856V120.205Z" fill="#D20032"/>
<path d="M223.767 112.925C222.209 112.925 220.687 112.463 219.392 111.598C218.097 110.733 217.088 109.503 216.492 108.065C215.896 106.626 215.741 105.043 216.044 103.515C216.348 101.988 217.098 100.585 218.199 99.4841C219.3 98.383 220.703 97.6331 222.23 97.3293C223.758 97.0255 225.341 97.1814 226.78 97.7774C228.218 98.3733 229.448 99.3825 230.313 100.677C231.178 101.972 231.64 103.494 231.64 105.052C231.634 107.138 230.803 109.137 229.327 110.612C227.852 112.088 225.853 112.919 223.767 112.925ZM223.767 98.3687C222.444 98.3687 221.151 98.7609 220.052 99.4957C218.952 100.231 218.095 101.275 217.589 102.497C217.083 103.719 216.951 105.063 217.209 106.36C217.467 107.657 218.105 108.849 219.04 109.784C219.975 110.718 221.167 111.355 222.464 111.613C223.761 111.87 225.106 111.737 226.327 111.231C227.549 110.724 228.593 109.867 229.327 108.767C230.062 107.667 230.453 106.374 230.453 105.052C230.451 103.279 229.746 101.58 228.492 100.327C227.239 99.0738 225.539 98.3695 223.767 98.3687V98.3687Z" fill="#D20032"/>
<path d="M497.314 217.968H403.325C403.168 217.968 403.017 217.905 402.905 217.794C402.794 217.683 402.731 217.532 402.731 217.374V152.567C402.731 152.41 402.794 152.259 402.905 152.147C403.017 152.036 403.168 151.973 403.325 151.973H497.314C497.472 151.973 497.623 152.036 497.734 152.147C497.845 152.259 497.908 152.41 497.908 152.567V217.374C497.908 217.532 497.845 217.683 497.734 217.794C497.623 217.905 497.472 217.968 497.314 217.968ZM403.922 216.781H496.72V153.161H403.922V216.781Z" fill="#D20032"/>
<path d="M164.512 217.968H162.901C162.743 217.968 162.592 217.905 162.481 217.794C162.37 217.683 162.307 217.532 162.307 217.374V152.567C162.307 152.41 162.37 152.259 162.481 152.147C162.592 152.036 162.743 151.973 162.901 151.973H174.776C174.933 151.973 175.084 152.036 175.196 152.147C175.307 152.259 175.37 152.41 175.37 152.567C175.37 152.725 175.307 152.876 175.196 152.987C175.084 153.098 174.933 153.161 174.776 153.161H163.495V216.781H164.512C164.669 216.781 164.82 216.843 164.932 216.954C165.043 217.066 165.105 217.217 165.105 217.374C165.105 217.532 165.043 217.683 164.932 217.794C164.82 217.905 164.669 217.968 164.512 217.968V217.968Z" fill="#D20032"/>
<path d="M380.87 262.856V240.335H279.345V262.856C279.345 263.014 279.283 263.165 279.171 263.276C279.06 263.387 278.909 263.45 278.751 263.45C278.594 263.45 278.443 263.387 278.332 263.276C278.22 263.165 278.158 263.014 278.158 262.856V239.741C278.158 239.583 278.22 239.432 278.332 239.321C278.443 239.21 278.594 239.147 278.751 239.147H381.467C381.624 239.147 381.775 239.21 381.887 239.321C381.998 239.432 382.061 239.583 382.061 239.741V262.856C382.05 263.006 381.982 263.147 381.872 263.25C381.761 263.353 381.616 263.41 381.465 263.41C381.314 263.41 381.169 263.353 381.059 263.25C380.948 263.147 380.881 263.006 380.87 262.856V262.856Z" fill="#D20032"/>
<path d="M496.72 262.856V240.335H403.925V262.856C403.914 263.006 403.847 263.147 403.736 263.25C403.626 263.353 403.481 263.41 403.33 263.41C403.179 263.41 403.034 263.353 402.923 263.25C402.813 263.147 402.745 263.006 402.734 262.856V239.741C402.734 239.583 402.797 239.432 402.908 239.321C403.02 239.21 403.171 239.147 403.328 239.147H497.314C497.472 239.147 497.623 239.21 497.734 239.321C497.845 239.432 497.908 239.583 497.908 239.741V262.856C497.908 263.014 497.845 263.165 497.734 263.276C497.623 263.387 497.472 263.45 497.314 263.45C497.157 263.45 497.006 263.387 496.894 263.276C496.783 263.165 496.72 263.014 496.72 262.856V262.856Z" fill="#D20032"/>
<path d="M256.293 262.856V240.335H226.985C226.827 240.335 226.676 240.272 226.565 240.161C226.454 240.049 226.391 239.898 226.391 239.741C226.391 239.583 226.454 239.432 226.565 239.321C226.676 239.21 226.827 239.147 226.985 239.147H256.887C256.965 239.147 257.042 239.163 257.114 239.192C257.186 239.222 257.252 239.266 257.307 239.321C257.362 239.376 257.406 239.442 257.436 239.514C257.465 239.586 257.481 239.663 257.481 239.741V262.856C257.481 263.014 257.418 263.165 257.307 263.276C257.195 263.387 257.044 263.45 256.887 263.45C256.73 263.45 256.578 263.387 256.467 263.276C256.356 263.165 256.293 263.014 256.293 262.856V262.856Z" fill="#D20032"/>
<path d="M382.057 152.532C382.013 152.112 381.877 152.176 381.372 152.157C373.271 151.869 278.729 151.863 278.414 152.078C278.009 152.365 278.158 151.238 278.158 188.082C278.158 188.239 278.22 188.39 278.332 188.501C278.443 188.613 278.594 188.675 278.751 188.675C278.909 188.675 279.06 188.613 279.171 188.501C279.283 188.39 279.345 188.239 279.345 188.082V153.657L328.996 184.98L325.042 187.475C324.916 187.562 324.828 187.694 324.797 187.844C324.766 187.994 324.795 188.151 324.876 188.28C324.958 188.41 325.086 188.503 325.235 188.54C325.383 188.577 325.54 188.556 325.673 188.48L330.095 185.685L379.398 216.79H280.804L284.095 214.715C284.229 214.631 284.324 214.498 284.359 214.344C284.394 214.19 284.367 214.029 284.283 213.895C284.199 213.762 284.066 213.667 283.912 213.632C283.759 213.597 283.597 213.624 283.464 213.708L279.358 216.304V215.072C279.358 214.914 279.295 214.763 279.184 214.652C279.073 214.541 278.922 214.478 278.764 214.478C278.607 214.478 278.456 214.541 278.344 214.652C278.233 214.763 278.17 214.914 278.17 215.072V217.374C278.265 218.322 273.607 217.968 381.479 217.968C382.392 217.968 382.073 220.99 382.073 152.567L382.057 152.532ZM280.807 153.164H379.411L330.108 184.273L280.807 153.164ZM380.873 216.304L331.222 184.971L380.873 153.647V216.304Z" fill="#D20032"/>
<path d="M460.739 177.855C460.68 177.773 460.603 177.706 460.513 177.66C460.424 177.614 460.325 177.59 460.224 177.59C460.123 177.59 460.024 177.614 459.934 177.66C459.845 177.706 459.767 177.773 459.709 177.855L455.603 184.952L446.015 168.339C445.956 168.257 445.879 168.19 445.79 168.144C445.7 168.098 445.601 168.074 445.5 168.074C445.399 168.074 445.3 168.098 445.21 168.144C445.121 168.19 445.044 168.257 444.985 168.339L426.036 201.135C425.984 201.225 425.956 201.327 425.956 201.432C425.956 201.536 425.984 201.638 426.036 201.729C426.088 201.819 426.163 201.894 426.254 201.946C426.344 201.998 426.446 202.025 426.551 202.025C464.285 202.025 472.055 202.107 473.684 201.959C474.256 201.908 474.341 201.615 474.085 201.075C473.498 199.786 470.813 195.304 460.739 177.855Z" fill="#D20032"/>
<path d="M470.04 168.043C469.126 168.043 468.232 168.314 467.473 168.821C466.713 169.329 466.121 170.051 465.771 170.895C465.421 171.739 465.33 172.668 465.508 173.565C465.686 174.461 466.126 175.284 466.772 175.93C467.419 176.576 468.242 177.017 469.138 177.195C470.035 177.373 470.964 177.282 471.808 176.932C472.652 176.582 473.374 175.99 473.881 175.23C474.389 174.47 474.66 173.577 474.66 172.663C474.659 171.438 474.172 170.263 473.306 169.397C472.44 168.531 471.265 168.043 470.04 168.043V168.043Z" fill="#D20032"/>
<path d="M96.8591 191.789H83.8755V178.784C83.8755 178.629 83.814 178.48 83.7044 178.371C83.5948 178.261 83.4462 178.199 83.2913 178.199C83.1363 178.199 82.9877 178.261 82.8781 178.371C82.7686 178.48 82.707 178.629 82.707 178.784V191.767H69.7014C69.5464 191.767 69.3978 191.829 69.2882 191.938C69.1787 192.048 69.1171 192.197 69.1171 192.352C69.1171 192.507 69.1787 192.655 69.2882 192.765C69.3978 192.874 69.5464 192.936 69.7014 192.936H82.688V205.938C82.688 206.093 82.7496 206.242 82.8592 206.351C82.9687 206.461 83.1174 206.523 83.2723 206.523C83.4273 206.523 83.5759 206.461 83.6855 206.351C83.795 206.242 83.8566 206.093 83.8566 205.938V192.958H96.8622C97.0172 192.958 97.1656 192.896 97.2749 192.786C97.3842 192.676 97.4453 192.527 97.4449 192.372C97.4445 192.217 97.3825 192.069 97.2727 191.959C97.1628 191.85 97.014 191.789 96.8591 191.789V191.789Z" fill="#D20032"/>
<path d="M563.211 138.444C563.064 136.769 563.417 135.089 564.226 133.615C565.034 132.141 566.261 130.94 567.753 130.164C569.244 129.387 570.931 129.071 572.602 129.254C574.273 129.437 575.852 130.111 577.14 131.192C578.428 132.272 579.366 133.71 579.837 135.324C580.307 136.938 580.288 138.655 579.782 140.258C579.277 141.861 578.307 143.279 576.996 144.331C575.685 145.383 574.092 146.022 572.417 146.169C571.305 146.266 570.185 146.144 569.121 145.808C568.056 145.473 567.068 144.931 566.213 144.214C565.358 143.496 564.653 142.617 564.138 141.627C563.623 140.637 563.308 139.555 563.211 138.444ZM571.04 130.418C569.599 130.545 568.228 131.096 567.1 132.002C565.972 132.908 565.138 134.128 564.704 135.508C564.27 136.888 564.255 138.365 564.661 139.754C565.067 141.142 565.876 142.379 566.985 143.308C568.094 144.236 569.454 144.815 570.892 144.971C572.33 145.126 573.782 144.852 575.064 144.182C576.346 143.512 577.401 142.477 578.095 141.208C578.788 139.938 579.09 138.492 578.961 137.051C578.876 136.094 578.604 135.163 578.159 134.312C577.715 133.461 577.106 132.705 576.37 132.089C575.633 131.473 574.782 131.009 573.865 130.722C572.948 130.435 571.984 130.332 571.027 130.418H571.04Z" fill="#D20032"/>
<path d="M378.16 30.3087L384.515 16.1629H373.202C373.103 16.1555 373.007 16.125 372.923 16.0738C372.838 16.0226 372.766 15.9522 372.714 15.8683C372.661 15.7844 372.629 15.6893 372.62 15.5907C372.611 15.4921 372.625 15.3928 372.662 15.3007L379.392 0.349611C379.424 0.278482 379.47 0.214382 379.527 0.160968C379.584 0.107554 379.651 0.0658711 379.724 0.0383037C379.797 0.0107364 379.874 -0.00217702 379.952 0.000299205C380.03 0.00277543 380.107 0.0205941 380.178 0.0527369C380.249 0.0848797 380.313 0.130719 380.367 0.187635C380.42 0.244551 380.462 0.311429 380.49 0.384453C380.517 0.457477 380.53 0.535218 380.528 0.613233C380.525 0.691248 380.507 0.768011 380.475 0.83914L374.121 14.9817C381.584 14.9817 384.227 14.9344 385.228 14.9817C385.961 15.0259 386.176 15.2502 385.885 15.9955C385.459 17.1135 383.927 20.3665 379.253 30.7824C379.222 30.8541 379.177 30.9191 379.121 30.9735C379.064 31.0278 378.998 31.0706 378.925 31.0994C378.853 31.1281 378.775 31.1422 378.697 31.141C378.619 31.1397 378.541 31.123 378.47 31.0919C378.398 31.0608 378.333 31.0159 378.279 30.9597C378.224 30.9035 378.181 30.8371 378.153 30.7644C378.124 30.6916 378.11 30.614 378.111 30.5358C378.112 30.4576 378.129 30.3804 378.16 30.3087V30.3087Z" fill="#D20032"/>
<path d="M180.713 107.294C181.44 107.872 182.302 108.253 183.218 108.402C184.481 108.57 184.756 107.499 184.851 106.223C184.945 104.947 184.478 105.184 184.197 105.228C184.115 105.244 181.039 106.378 180.874 106.492C180.749 106.578 180.661 106.71 180.631 106.86C180.601 107.01 180.631 107.165 180.713 107.294V107.294Z" fill="#000001"/>
<path d="M208.092 243.493C199.739 264.258 200.216 262.812 200.471 263.191C200.727 263.57 200.541 263.45 205.84 263.45C205.983 263.45 206.121 263.398 206.229 263.305C206.337 263.212 206.407 263.083 206.428 262.941L209.213 243.799C209.222 243.663 209.183 243.528 209.103 243.418C209.024 243.307 208.909 243.227 208.777 243.191C208.646 243.155 208.506 243.165 208.381 243.22C208.256 243.275 208.154 243.372 208.092 243.493Z" fill="#000001"/>
<path d="M121.177 327.433L135.074 335.224C141.516 338.798 149.021 339.962 156.243 338.507C163.465 337.051 169.933 333.072 174.489 327.281C174.536 327.219 174.572 327.148 174.592 327.072C174.613 326.996 174.618 326.917 174.608 326.839C174.598 326.761 174.572 326.686 174.533 326.618C174.494 326.55 174.442 326.49 174.38 326.442C174.317 326.395 174.246 326.359 174.171 326.339C174.095 326.318 174.016 326.313 173.938 326.323C173.86 326.333 173.785 326.359 173.717 326.398C173.649 326.437 173.589 326.489 173.541 326.551C169.162 332.12 162.943 335.948 155.998 337.347C149.053 338.747 141.836 337.627 135.642 334.188L121.746 326.397C121.61 326.339 121.458 326.334 121.319 326.382C121.18 326.43 121.064 326.528 120.993 326.657C120.922 326.786 120.902 326.937 120.936 327.08C120.97 327.224 121.056 327.349 121.177 327.433V327.433Z" fill="#000001"/>
<path d="M325.986 186.442C325.411 185.28 323.7 185.126 321.407 186.029C318.366 187.09 315.269 187.986 312.131 188.71C314.841 187.219 321.868 183.366 320.38 180.669C318.548 177.35 312.279 183.581 296.908 186.439C301.961 179.873 303.856 175.907 302.52 174.646C301.276 173.472 297.96 175.224 292.657 179.867C287.314 184.429 280.812 187.421 273.872 188.511C273.519 187.755 273.096 187.034 272.609 186.357C272.239 186.136 274.014 185.934 230.045 193.517C225.039 178.272 222.219 165.431 219.544 158.031L234.991 180.701C235.326 181.19 232.821 181.427 278.17 173.607V172.404L235.755 179.719C215.426 149.867 215.094 149.191 214.778 148.951C210.518 143.715 204.106 141.185 192.582 139.495C192.195 136.646 192.466 133.746 193.375 131.019C194.551 131.46 195.79 131.716 197.045 131.777C198.049 131.779 199.039 131.529 199.921 131.049C200.804 130.569 201.553 129.876 202.098 129.032C206.248 123.192 205.209 108.699 199.998 99.7678C199.918 99.6317 199.788 99.5328 199.635 99.4928C199.483 99.4528 199.32 99.475 199.184 99.5546C199.048 99.6342 198.949 99.7646 198.909 99.9171C198.869 100.07 198.892 100.232 198.971 100.368C205.177 111.005 205.562 132.361 195.908 130.475L193.151 129.724C191.518 128.957 189.936 128.088 188.413 127.121C188.097 126.941 187.302 127.15 187.504 127.791C187.605 128.107 188.767 130.002 191.395 134.524C191.076 136.084 191.035 137.688 191.275 139.262L179.807 137.225C183.758 124.592 183.537 123.012 181.538 113.582C181.514 113.472 181.459 113.371 181.38 113.291C181.302 113.21 181.202 113.154 181.092 113.127C180.457 113.015 179.851 112.778 179.308 112.428C178.766 112.079 178.299 111.625 177.934 111.093C177.018 109.59 177.732 108.804 177.454 108.251L177.385 108.159C176.955 107.783 176.785 107.992 175.174 108.601C175.032 108.662 174.919 108.775 174.858 108.917C174.447 110.111 180.12 122.425 181.49 126.259C180.208 132.081 178.578 137.822 176.611 143.449C170.596 162.99 169.533 183.719 173.519 203.772C171.605 205.983 156.663 223.669 153.995 244.001C153.262 249.557 152.169 255.857 150.735 262.73C150.71 262.881 150.744 263.037 150.831 263.164C150.917 263.291 151.05 263.38 151.201 263.411C151.351 263.442 151.508 263.413 151.638 263.331C151.768 263.249 151.861 263.119 151.898 262.97C153.338 256.069 154.424 249.74 155.173 244.156C157.807 224.089 172.657 206.573 174.438 204.536H197.632L201.738 216.929C203.092 221.023 205.742 224.565 209.287 227.02C212.832 229.475 217.08 230.71 221.388 230.538C240.136 265.278 238.917 263.383 239.466 263.383C239.569 263.384 239.67 263.357 239.76 263.307C239.849 263.256 239.924 263.183 239.977 263.095C240.03 263.007 240.059 262.906 240.061 262.804C240.063 262.701 240.039 262.599 239.99 262.509L222.642 230.446C223.356 230.37 278.3 219.522 278.619 219.25C279.013 218.072 279.243 216.846 279.304 215.606C292.123 213.505 304.761 210.418 317.105 206.371C320.023 205.313 321.593 203.952 321.299 202.726C321.148 202.095 320.405 201.113 317.118 201.52C316.407 201.608 315.64 201.665 314.752 201.706C317.14 201.021 319.487 200.201 321.782 199.252C327.802 196.666 326.397 192.598 321.132 193.883C320.02 194.152 317.825 194.594 315.175 195.017C317.75 193.93 320.258 192.691 322.686 191.306C325.354 189.686 326.649 187.785 325.986 186.442ZM277.716 218.309L224.202 229.009C219.734 229.901 215.093 229.128 211.154 226.835C207.216 224.543 204.252 220.889 202.821 216.563L190.074 177.953C190.024 177.804 189.918 177.681 189.777 177.611C189.637 177.541 189.474 177.529 189.325 177.578C189.176 177.628 189.053 177.734 188.982 177.874C188.911 178.014 188.898 178.177 188.947 178.326L197.209 203.355H174.621C170.719 183.557 171.785 163.101 177.723 143.816C178.234 142.151 179.431 138.377 179.431 138.377L192.064 140.623C203.658 142.293 209.861 144.675 213.951 149.823L215.672 152.349C220.239 160.156 221.957 172.812 229.079 194.389C229.118 194.507 229.194 194.61 229.296 194.683C229.397 194.756 229.519 194.796 229.644 194.796C229.96 194.796 232.843 194.253 271.964 187.507C277.118 196.898 279.133 207.691 277.716 218.309ZM304.156 198.122C304.025 198.169 303.914 198.26 303.844 198.381C303.773 198.501 303.748 198.643 303.771 198.78C303.794 198.918 303.865 199.043 303.972 199.133C304.078 199.223 304.213 199.273 304.352 199.274C304.728 199.274 310.353 197.029 311.003 196.748C314.507 196.361 317.986 195.78 321.426 195.008C323.45 194.518 324.397 194.922 324.521 195.292C325.503 198.242 308.019 202.341 304.94 202.96C304.793 202.999 304.667 203.092 304.586 203.22C304.506 203.349 304.478 203.503 304.508 203.651C304.538 203.8 304.623 203.931 304.747 204.019C304.871 204.107 305.023 204.144 305.173 204.122C309.532 203.244 309.829 202.925 310.147 202.979C312.529 203.004 314.911 202.905 317.282 202.682C319.534 202.404 320.124 202.881 320.162 202.998C320.219 203.238 319.48 204.261 316.72 205.25C304.54 209.254 292.067 212.306 279.415 214.377C279.707 205.86 278.003 197.393 274.44 189.651C281.462 188.45 288.031 185.378 293.453 180.758C299.41 175.54 301.484 175.291 301.715 175.506C302.056 175.821 301.608 178.547 295.323 186.559C295.282 186.612 295.251 186.67 295.231 186.733C294.05 186.923 292.832 187.085 291.577 187.219C291.5 187.228 291.424 187.251 291.356 187.289C291.287 187.326 291.227 187.376 291.178 187.437C291.129 187.498 291.092 187.568 291.07 187.642C291.048 187.717 291.041 187.796 291.05 187.873C291.058 187.951 291.081 188.026 291.119 188.094C291.156 188.163 291.207 188.223 291.267 188.272C291.328 188.321 291.398 188.358 291.473 188.38C291.547 188.402 291.626 188.409 291.703 188.401C309.27 186.537 318.195 179.141 319.351 181.244C319.534 181.56 319.145 182.792 316.789 184.453C312.561 187.299 308.049 189.699 303.326 191.613C303.184 191.675 303.073 191.79 303.015 191.933C302.957 192.077 302.957 192.237 303.015 192.38C303.074 192.523 303.186 192.638 303.327 192.7C303.469 192.762 303.629 192.766 303.774 192.712C304.977 192.222 306.358 191.616 307.82 190.921C312.574 189.952 317.263 188.687 321.858 187.131C323.785 186.367 324.767 186.623 324.934 186.964C325.178 187.459 324.445 188.859 322.092 190.267C316.316 193.326 310.321 195.951 304.156 198.122V198.122Z" fill="#000001"/>
<path d="M599.493 447.029H276.91C277.312 446.459 277.485 445.759 277.396 445.068C277.306 444.377 276.96 443.744 276.427 443.296C270.954 438.647 256.846 427.467 243.55 423.487L246.231 404.926C248.082 404.664 249.98 404.329 251.897 403.922C252.529 403.726 251.581 407.987 264.407 332.599C264.724 330.731 264.946 328.847 265.07 326.956C265.076 326.801 265.021 326.651 264.918 326.536C264.814 326.422 264.67 326.352 264.516 326.341C264.362 326.331 264.21 326.381 264.092 326.481C263.975 326.581 263.9 326.723 263.886 326.877C263.62 330.856 263.838 328.838 254.55 383.409C240.767 384.947 226.815 383.288 213.777 378.561L219.373 327.041C219.382 326.964 219.376 326.885 219.354 326.81C219.332 326.736 219.296 326.666 219.247 326.605C219.199 326.544 219.138 326.494 219.07 326.456C219.002 326.419 218.927 326.395 218.849 326.387C218.693 326.374 218.537 326.421 218.415 326.519C218.293 326.617 218.213 326.759 218.192 326.915C209.889 403.24 210.341 398.158 210.612 398.474C211.93 399.335 213.302 400.112 214.718 400.798L211.055 423.813C208.919 429.911 207.614 436.268 207.173 442.715C207.122 443.549 207.285 444.383 207.649 445.136C208.012 445.89 208.563 446.537 209.248 447.016H56.2346C55.7956 447.016 55.0282 448.38 56.4462 448.384C64.0797 448.412 126.518 448.204 599.493 448.204C599.634 448.183 599.762 448.112 599.856 448.004C599.949 447.896 600 447.759 600 447.616C600 447.474 599.949 447.336 599.856 447.228C599.762 447.12 599.634 447.049 599.493 447.029ZM254.341 384.638L251.24 402.845C235.724 406.063 222.418 404.361 211.689 397.792L213.644 379.79C226.667 384.469 240.584 386.127 254.341 384.638V384.638ZM245.009 405.087L242.34 423.55C232.513 426.245 222.142 426.245 212.315 423.55L215.855 401.345C225.036 405.28 235.132 406.576 245.009 405.087V405.087Z" fill="#000001"/>
<path d="M194.689 220.28C189.11 228.203 180.908 233.897 171.536 236.355C171.385 236.403 171.26 236.509 171.188 236.65C171.116 236.79 171.102 236.953 171.15 237.104C171.198 237.254 171.304 237.379 171.445 237.451C171.585 237.524 171.748 237.537 171.899 237.489C182.896 233.98 190.899 228.406 195.69 220.921C195.732 220.855 195.761 220.782 195.774 220.705C195.788 220.628 195.787 220.549 195.77 220.473C195.753 220.397 195.722 220.325 195.677 220.261C195.632 220.197 195.576 220.142 195.51 220.1C195.444 220.058 195.371 220.029 195.294 220.015C195.217 220.002 195.138 220.003 195.062 220.02C194.986 220.036 194.913 220.068 194.849 220.113C194.785 220.157 194.731 220.214 194.689 220.28V220.28Z" fill="#000001"/>
<path d="M557.684 242.801C558.362 242.691 558.975 242.336 559.409 241.803C559.842 241.271 560.064 240.597 560.034 239.911C560.008 239.135 559.682 238.4 559.125 237.86C558.567 237.32 557.821 237.018 557.044 237.018C556.268 237.018 555.522 237.32 554.964 237.86C554.406 238.4 554.08 239.135 554.055 239.911C554.025 240.613 554.259 241.301 554.711 241.839C555.162 242.377 555.8 242.726 556.496 242.817V262.262H103.722V242.782C104.38 242.654 104.97 242.293 105.384 241.766C105.798 241.239 106.01 240.581 105.98 239.911C105.955 239.135 105.629 238.4 105.071 237.86C104.513 237.32 103.767 237.018 102.991 237.018C102.214 237.018 101.468 237.32 100.911 237.86C100.353 238.4 100.027 239.135 100.002 239.911C99.9705 240.628 100.215 241.33 100.685 241.873C101.154 242.415 101.814 242.758 102.528 242.83V447.626C102.528 447.783 102.591 447.934 102.702 448.045C102.813 448.157 102.964 448.219 103.122 448.219C103.279 448.219 103.43 448.157 103.542 448.045C103.653 447.934 103.716 447.783 103.716 447.626V327.508H556.5V447.626C556.5 447.783 556.562 447.934 556.673 448.045C556.785 448.157 556.936 448.219 557.093 448.219C557.251 448.219 557.402 448.157 557.513 448.045C557.625 447.934 557.687 447.783 557.687 447.626L557.684 242.801ZM556.5 285.785L511.444 263.44H556.5V285.785ZM103.722 326.321V302.615L151.512 326.321H103.722ZM212.049 326.321L103.722 272.59V263.45H131.287L258.046 326.321H212.049ZM318.589 326.321L191.818 263.45H237.833L364.608 326.321H318.589ZM425.123 326.321L298.361 263.45H344.361L471.132 326.321H425.123ZM556.506 326.321H531.676L404.904 263.45H450.904L556.5 315.823L556.506 326.321Z" fill="#D20032"/>
<path d="M208.522 94.3956C208.253 94.1224 207.916 93.9262 207.545 93.8273C207.175 93.7285 206.785 93.7306 206.415 93.8335L200.816 95.9369C200.004 94.1433 198.839 92.5319 197.39 91.1991C195.941 89.8663 194.238 88.8395 192.383 88.1802C192.666 87.7836 192.846 87.3234 192.908 86.8404C192.97 86.3575 192.913 85.8667 192.74 85.4114C192.567 84.9561 192.285 84.5504 191.918 84.2302C191.551 83.9099 191.111 83.6851 190.637 83.5755C187.018 82.8534 183.271 83.134 179.801 84.3872C176.657 85.5302 173.853 87.4513 171.652 89.9709C171.344 90.3233 171.124 90.7438 171.011 91.1978C170.897 91.6518 170.893 92.1263 170.999 92.5822C171.105 93.0381 171.317 93.4624 171.619 93.8199C171.921 94.1775 172.304 94.4582 172.736 94.6388C171.1 96.9519 170.103 99.6548 169.844 102.476C169.585 105.297 170.074 108.136 171.261 110.708C171.306 110.817 171.382 110.91 171.48 110.976C171.577 111.042 171.693 111.077 171.81 111.077C172.126 111.046 209.393 96.7359 207.735 97.396C208.027 97.2975 208.289 97.1282 208.499 96.9033C208.708 96.6785 208.859 96.405 208.937 96.1076C209.015 95.8102 209.018 95.4981 208.945 95.1993C208.873 94.9005 208.727 94.6243 208.522 94.3956V94.3956Z" fill="#D20032"/>
</svg>
